<svg viewBox="0 0 24 24" fill="none" xmlns="http://www.w3.org/2000/svg">
<path d="M18.2555 5H16.7601V6.5C16.7601 6.8 16.5109 7 16.2617 7C16.0125 7 15.7632 6.8 15.7632 6.5V5H7.78816V6.5C7.78816 6.8 7.53894 7 7.28972 7C7.0405 7 6.79128 6.8 6.79128 6.5V5H5.29595C4.54829 5 4 5.65 4 6.5V8.3H19.9502V6.5C19.9502 5.65 19.053 5 18.2555 5ZM4 9.35V18.5C4 19.4 4.54829 20 5.34579 20H18.3053C19.1028 20 20 19.35 20 18.5V9.35H4ZM8.43614 17.75H7.23988C7.0405 17.75 6.84112 17.6 6.84112 17.35V16.1C6.84112 15.9 6.99065 15.7 7.23988 15.7H8.48598C8.68536 15.7 8.88474 15.85 8.88474 16.1V17.35C8.83489 17.6 8.68536 17.75 8.43614 17.75ZM8.43614 13.25H7.23988C7.0405 13.25 6.84112 13.1 6.84112 12.85V11.6C6.84112 11.4 6.99065 11.2 7.23988 11.2H8.48598C8.68536 11.2 8.88474 11.35 8.88474 11.6V12.85C8.83489 13.1 8.68536 13.25 8.43614 13.25ZM12.4237 17.75H11.1776C10.9782 17.75 10.7788 17.6 10.7788 17.35V16.1C10.7788 15.9 10.9283 15.7 11.1776 15.7H12.4237C12.6231 15.7 12.8224 15.85 12.8224 16.1V17.35C12.8224 17.6 12.6729 17.75 12.4237 17.75ZM12.4237 13.25H11.1776C10.9782 13.25 10.7788 13.1 10.7788 12.85V11.6C10.7788 11.4 10.9283 11.2 11.1776 11.2H12.4237C12.6231 11.2 12.8224 11.35 12.8224 11.6V12.85C12.8224 13.1 12.6729 13.25 12.4237 13.25ZM16.4112 17.75H15.1651C14.9657 17.75 14.7664 17.6 14.7664 17.35V16.1C14.7664 15.9 14.9159 15.7 15.1651 15.7H16.4112C16.6106 15.7 16.81 15.85 16.81 16.1V17.35C16.81 17.6 16.6604 17.75 16.4112 17.75ZM16.4112 13.25H15.1651C14.9657 13.25 14.7664 13.1 14.7664 12.85V11.6C14.7664 11.4 14.9159 11.2 15.1651 11.2H16.4112C16.6106 11.2 16.81 11.35 16.81 11.6V12.85C16.81 13.1 16.6604 13.25 16.4112 13.25Z" fill="#9C9C9C"/>
</svg>
