<svg width="24" height="24" viewBox="0 0 24 24" fill="none" xmlns="http://www.w3.org/2000/svg">
<path d="M18.6926 16.2035L16.8134 13.8949C16.1423 13.0704 14.8665 13.2607 14.4889 14.2195C14.2105 14.8818 13.4431 15.1944 12.7941 14.983C11.3555 14.471 9.53696 12.3207 9.30411 10.6956C9.14128 9.99344 9.64669 9.27529 10.3278 9.10773C11.3094 8.89091 11.7127 7.62885 11.0415 6.80437L9.16231 4.49581C8.61897 3.91203 7.73655 3.83228 7.17687 4.31638L5.65772 5.63035C4.13216 7.02014 5.33613 11.1772 8.49054 15.0523C11.6449 18.9274 15.4011 20.9473 17.0002 19.5641L18.5193 18.2502C19.0854 17.6903 19.1625 16.7806 18.6926 16.2035Z" fill="#7600A8"/>
</svg>
